<?xml version="1.0" encoding="UTF-8" standalone="no"?>
<svg
   xmlns:dc="http://purl.org/dc/elements/1.1/"
   xmlns:cc="http://creativecommons.org/ns#"
   xmlns:rdf="http://www.w3.org/1999/02/22-rdf-syntax-ns#"
   xmlns:svg="http://www.w3.org/2000/svg"
   xmlns="http://www.w3.org/2000/svg"
   xmlns:sodipodi="http://sodipodi.sourceforge.net/DTD/sodipodi-0.dtd"
   xmlns:inkscape="http://www.inkscape.org/namespaces/inkscape"
   width="55.86961mm"
   height="84.527283mm"
   viewBox="0 0 55.86961 84.527283"
   version="1.1"
   id="svg8"
   inkscape:version="1.0.2 (e86c870879, 2021-01-15, custom)"
   sodipodi:docname="ck-singers-logo.svg">
  <defs
     id="defs2">
    <rect
       x="103.1875"
       y="84.666664"
       width="42.333332"
       height="34.395832"
       id="rect30" />
    <rect
       x="66.145836"
       y="71.4375"
       width="71.4375"
       height="42.333332"
       id="rect16" />
  </defs>
  <sodipodi:namedview
     id="base"
     pagecolor="#ffffff"
     bordercolor="#666666"
     borderopacity="1.0"
     inkscape:pageopacity="0.0"
     inkscape:pageshadow="2"
     inkscape:zoom="0.98994949"
     inkscape:cx="72.143845"
     inkscape:cy="326.68713"
     inkscape:document-units="mm"
     inkscape:current-layer="layer1"
     inkscape:document-rotation="0"
     showgrid="true"
     inkscape:snap-global="false"
     fit-margin-top="0"
     fit-margin-left="0"
     fit-margin-right="0"
     fit-margin-bottom="0"
     inkscape:window-width="1920"
     inkscape:window-height="1009"
     inkscape:window-x="1912"
     inkscape:window-y="-8"
     inkscape:window-maximized="1">
    <inkscape:grid
       type="xygrid"
       id="grid12"
       originx="-69.036965"
       originy="-8.055725" />
  </sodipodi:namedview>
  <metadata
     id="metadata5">
    <rdf:RDF>
      <cc:Work
         rdf:about="">
        <dc:format>image/svg+xml</dc:format>
        <dc:type
           rdf:resource="http://purl.org/dc/dcmitype/StillImage" />
        <dc:title></dc:title>
      </cc:Work>
    </rdf:RDF>
  </metadata>
  <g
     inkscape:label="Layer 1"
     inkscape:groupmode="layer"
     id="layer1"
     transform="translate(-69.036967,-8.0557253)">
    <text
       xml:space="preserve"
       style="font-size:10.5833px;line-height:1.25;font-family:'Always Forever';-inkscape-font-specification:'Always Forever';stroke-width:0.264583"
       x="58.208332"
       y="60.854164"
       id="text36"><tspan
         sodipodi:role="line"
         id="tspan34"
         x="58.208332"
         y="60.854164"
         style="stroke-width:0.264583" /></text>
    <text
       xml:space="preserve"
       style="font-style:normal;font-variant:normal;font-weight:normal;font-stretch:normal;font-size:19.7806px;line-height:1.25;font-family:'Maiandra GD';-inkscape-font-specification:'Maiandra GD';stroke-width:0.494516"
       x="70.959007"
       y="85.614883"
       id="text895"
       transform="scale(0.97324643,1.027489)"><tspan
         sodipodi:role="line"
         id="tspan893"
         x="70.959007"
         y="85.614883"
         style="font-style:normal;font-variant:normal;font-weight:normal;font-stretch:normal;font-family:'Maiandra GD';-inkscape-font-specification:'Maiandra GD';stroke-width:0.494516">Singers</tspan></text>
    <g
       id="g916"
       transform="matrix(1.000844,0,0,0.99716292,15.723945,-44.128006)">
      <text
         xml:space="preserve"
         style="font-style:normal;font-variant:normal;font-weight:normal;font-stretch:normal;font-size:45.7114px;line-height:1.25;font-family:'Maiandra GD';-inkscape-font-specification:'Maiandra GD';stroke-width:1.14279"
         x="55.027115"
         y="107.90691"
         id="text26"
         transform="scale(0.94204934,1.0615155)"><tspan
           sodipodi:role="line"
           id="tspan24"
           x="55.027115"
           y="107.90691"
           style="font-style:normal;font-variant:normal;font-weight:normal;font-stretch:normal;font-family:'Maiandra GD';-inkscape-font-specification:'Maiandra GD';stroke-width:1.14279">C</tspan></text>
      <rect
         style="fill:#000000;fill-opacity:1;stroke:#000000;stroke-width:0.11162"
         id="rect66"
         width="6.4208274"
         height="63.522091"
         x="82.585419"
         y="52.388012" />
      <path
         style="color:#000000;font-style:normal;font-variant:normal;font-weight:normal;font-stretch:normal;font-size:medium;line-height:normal;font-family:sans-serif;font-variant-ligatures:normal;font-variant-position:normal;font-variant-caps:normal;font-variant-numeric:normal;font-variant-alternates:normal;font-variant-east-asian:normal;font-feature-settings:normal;font-variation-settings:normal;text-indent:0;text-align:start;text-decoration:none;text-decoration-line:none;text-decoration-style:solid;text-decoration-color:#000000;letter-spacing:normal;word-spacing:normal;text-transform:none;writing-mode:lr-tb;direction:ltr;text-orientation:mixed;dominant-baseline:auto;baseline-shift:baseline;text-anchor:start;white-space:normal;shape-padding:0;shape-margin:0;inline-size:0;clip-rule:nonzero;display:inline;overflow:visible;visibility:visible;isolation:auto;mix-blend-mode:normal;color-interpolation:sRGB;color-interpolation-filters:linearRGB;solid-color:#000000;solid-opacity:1;vector-effect:none;fill:#000000;fill-opacity:1;fill-rule:nonzero;stroke:none;stroke-width:0.0481188;stroke-linecap:butt;stroke-linejoin:miter;stroke-miterlimit:4;stroke-dasharray:none;stroke-dashoffset:0;stroke-opacity:1;color-rendering:auto;image-rendering:auto;shape-rendering:auto;text-rendering:auto;enable-background:accumulate;stop-color:#000000"
         d="m 104.36798,114.68429 c -1.69255,-0.87988 -3.72032,-2.88455 -8.650034,-8.55148 -4.75902,-5.47071 -7.892132,-8.867081 -8.044336,-8.720256 -0.04739,0.04572 -0.01519,2.157001 0.07155,4.691746 0.19526,5.70584 0.457748,7.87996 1.203561,9.96885 l -0.511538,0.78389 -0.0094,0.34805 c -0.06728,2.47902 -2.885893,0.69534 -3.773588,-0.27995 -0.88223,-0.96929 -0.453213,-1.57325 0.05265,-13.239131 0.254516,-5.869435 -1.42879,-8.917815 -1.423905,-17.401818 0.0062,-10.756123 9.103095,-14.763784 1.584407,-18.017653 -0.672799,-0.291168 0.322807,0.737334 0.700561,0.714488 4.130733,-0.249826 0.451691,0.04728 -0.706255,-0.202549 l 0.857165,-0.669251 c 1.047295,-0.817699 -0.169016,-0.647972 0.504653,-0.643276 0.735333,0.0051 1.49878,0.441115 1.813079,1.035416 0.553966,1.047484 0.59469,2.334099 0.283363,8.952389 -0.365588,7.771751 -0.583893,15.733626 -0.529934,19.327531 l 0.04244,2.826861 2.939966,-2.829365 c 6.013889,-5.787651 9.681435,-10.013895 11.039875,-12.72163 0.35297,-0.703561 0.28474,-0.706522 1.70649,0.07404 1.80472,0.990825 2.56105,2.230138 2.04531,3.351447 -0.59895,1.302208 -3.24773,3.99052 -9.355896,9.495525 -1.923941,1.733959 -3.498074,3.187419 -3.498074,3.229913 0,0.0425 0.94176,1.089234 2.092804,2.326087 7.002056,7.524066 11.169456,11.464906 12.905246,12.203666 0.52154,0.22197 0.52979,0.23594 0.45401,0.76927 -0.11881,0.83617 -0.57843,1.98149 -0.99389,2.47667 -0.9023,1.07541 -1.69677,1.27416 -2.80023,0.70052 z"
         id="path901"
         sodipodi:nodetypes="ssssscsssssscssssscsssssssssss" />
      <path
         style="color:#000000;font-style:normal;font-variant:normal;font-weight:normal;font-stretch:normal;font-size:medium;line-height:normal;font-family:sans-serif;font-variant-ligatures:normal;font-variant-position:normal;font-variant-caps:normal;font-variant-numeric:normal;font-variant-alternates:normal;font-variant-east-asian:normal;font-feature-settings:normal;font-variation-settings:normal;text-indent:0;text-align:start;text-decoration:none;text-decoration-line:none;text-decoration-style:solid;text-decoration-color:#000000;letter-spacing:normal;word-spacing:normal;text-transform:none;writing-mode:lr-tb;direction:ltr;text-orientation:mixed;dominant-baseline:auto;baseline-shift:baseline;text-anchor:start;white-space:normal;shape-padding:0;shape-margin:0;inline-size:0;clip-rule:nonzero;display:inline;overflow:visible;visibility:visible;isolation:auto;mix-blend-mode:normal;color-interpolation:sRGB;color-interpolation-filters:linearRGB;solid-color:#000000;solid-opacity:1;vector-effect:none;fill:#000000;fill-opacity:1;fill-rule:nonzero;stroke:none;stroke-width:0.259865;stroke-linecap:butt;stroke-linejoin:miter;stroke-miterlimit:4;stroke-dasharray:none;stroke-dashoffset:0;stroke-opacity:1;color-rendering:auto;image-rendering:auto;shape-rendering:auto;text-rendering:auto;enable-background:accumulate;stop-color:#000000"
         d="m 86.223778,63.442448 c -0.683093,-0.0048 -1.9412,0.362557 -3.161564,0.918735 l -0.167508,0.329295 0.370816,0.971006 c 0.13293,0.337477 1.106906,-0.623072 1.252638,0.07314 0.552956,2.641689 -1.253386,5.793573 -1.259578,16.54961 -0.0049,8.483908 -0.05917,11.468567 -0.313674,17.337808 -0.252934,5.832998 -0.326718,9.073248 -0.312642,10.979938 0.02838,3.84494 2.73934,0.57345 2.859945,1.01687 0.120602,0.44342 -1.212533,-0.22371 -0.990246,0.0205 0.449937,0.49434 0.321392,0.2876 1.194634,0.2266 0.873238,-0.061 -1.292085,0.0245 -0.163492,-0.57405 l 1.731259,1.38303 0.538258,-0.48046 c -0.744683,-2.08573 0.162039,-4.38557 -0.0332,-10.09092 -0.04336,-1.26725 -0.07282,-2.42846 -0.08578,-3.278624 -0.0065,-0.425081 -0.009,-0.772819 -0.0067,-1.01644 0.0011,-0.121812 0.0038,-0.2177 0.0072,-0.284144 0.0019,-0.03322 0.0035,-0.05919 0.0057,-0.07677 7.94e-4,-0.0067 0.0019,-0.01095 0.0026,-0.01496 0.0065,0.0015 0.01749,0.0058 0.03204,0.01396 0.03005,0.01679 0.07345,0.04794 0.127641,0.09222 0.108394,0.08857 0.261307,0.230372 0.455787,0.421729 0.388956,0.382715 0.943824,0.964179 1.642276,1.721318 1.396902,1.514271 3.369591,3.730781 5.749005,6.466041 4.930007,5.66727 6.958317,7.67399 8.657357,8.55724 0.55493,0.28848 1.03633,0.38441 1.49293,0.27019 0.45659,-0.11423 0.88501,-0.43677 1.3379,-0.97656 0.42153,-0.5024 0.87935,-1.6471 0.99891,-2.48852 0.0379,-0.26681 0.058,-0.4086 -0.006,-0.51645 -0.0636,-0.10785 -0.2016,-0.16662 -0.4625,-0.27766 -0.85981,-0.36594 -2.3371,-1.53486 -4.47053,-3.55231 -2.13343,-2.01745 -4.925529,-4.88365 -8.426363,-8.645467 -0.575447,-0.618345 -1.098759,-1.189199 -1.477946,-1.610652 -0.189596,-0.210727 -0.343004,-0.384282 -0.44907,-0.507473 -0.05303,-0.06159 -0.09431,-0.110397 -0.121954,-0.145063 -0.01384,-0.01733 -0.02437,-0.03134 -0.03101,-0.04088 -0.0016,-0.0023 -0.0019,-0.0032 -0.0031,-0.005 0.0024,-0.0029 0.0048,-0.0055 0.0088,-0.01 0.01148,-0.01284 0.02895,-0.03139 0.05219,-0.05483 0.0465,-0.04689 0.11539,-0.113821 0.204121,-0.198405 0.177464,-0.169165 0.434417,-0.408725 0.751377,-0.701387 0.633918,-0.585322 1.50822,-1.382304 2.470131,-2.249229 3.054247,-2.75265 5.243584,-4.801331 6.744804,-6.32496 1.50123,-1.52363 2.31453,-2.521035 2.6169,-3.178433 0.26103,-0.567518 0.19931,-1.167312 -0.154,-1.746244 -0.3533,-0.578929 -0.99679,-1.138272 -1.90169,-1.635078 -0.35537,-0.195101 -0.61749,-0.341193 -0.81752,-0.440175 -0.20003,-0.09898 -0.33772,-0.151763 -0.44752,-0.156528 -0.1098,-0.0048 -0.1898,0.04361 -0.25787,0.134096 -0.0681,0.09049 -0.12945,0.223185 -0.21755,0.398799 -1.35526,2.701403 -5.021793,6.928244 -11.034986,12.715224 l -2.899566,2.789603 -0.04134,-2.77066 c -0.05394,-3.592475 0.164626,-11.554874 0.530201,-19.326321 0.15567,-3.30926 0.222978,-5.285812 0.182417,-6.567231 -0.0402,-1.281351 -0.189629,-1.869696 -0.468346,-2.396716 -0.319392,-0.603934 -1.089266,-1.043147 -1.834512,-1.048346 z m -5.29e-4,0.04736 c 0.725419,0.0051 1.482418,0.43775 1.791624,1.022422 0.275248,0.520461 0.423074,1.098512 0.463536,2.376845 0.04046,1.278333 -0.02728,3.254712 -0.182935,6.563742 -0.365602,7.772054 -0.584179,15.73348 -0.530199,19.328814 l 0.04341,2.882821 2.980695,-2.868865 c 6.014585,-5.78832 9.68319,-10.014114 11.0448,-12.728184 0.0884,-0.176163 0.15058,-0.307768 0.21343,-0.391321 0.0628,-0.08355 0.12102,-0.118777 0.216,-0.114655 0.095,0.0041 0.22878,0.05304 0.42685,0.151046 0.19807,0.09801 0.46047,0.243999 0.81597,0.439177 0.89983,0.494019 1.53702,1.04937 1.88412,1.618128 0.34711,0.568761 0.40562,1.149584 0.1509,1.703373 -0.29658,0.64481 -1.10713,1.642643 -2.60708,3.164972 -1.49994,1.522329 -3.688814,3.570612 -6.742736,6.322967 -0.96203,0.867034 -1.837033,1.663709 -2.471166,2.249229 -0.317066,0.292761 -0.574082,0.53289 -0.751892,0.702385 -0.0889,0.08475 -0.157533,0.151896 -0.20464,0.199399 -0.02355,0.02376 -0.04175,0.04236 -0.05426,0.05633 -0.0062,0.007 -0.01122,0.01291 -0.01498,0.01794 -0.0019,0.0026 -0.0036,0.0047 -0.0052,0.0075 -7.93e-4,0.0013 -0.0013,0.0029 -0.0021,0.005 -2.65e-4,10e-4 -7.94e-4,0.002 -0.0011,0.0035 -2.64e-4,0.0015 -0.0011,0.0058 -0.0011,0.006 0,0.01184 0.0032,0.01353 0.0057,0.01794 0.0024,0.0044 0.0055,0.0089 0.0093,0.01445 0.0077,0.01108 0.01889,0.0256 0.03307,0.04337 0.02835,0.03554 0.06975,0.08472 0.122989,0.14656 0.106484,0.123675 0.260376,0.297094 0.450104,0.507972 0.379452,0.42175 0.902348,0.992639 1.477944,1.61115 3.501225,3.762235 6.293687,6.628785 8.428427,8.647465 2.13473,2.01868 3.60952,3.18945 4.48551,3.56228 0.26064,0.11092 0.38734,0.16976 0.43925,0.25772 0.0519,0.088 0.0379,0.22001 0,0.48653 -0.11807,0.83093 -0.57917,1.97714 -0.98857,2.46508 -0.4494,0.53563 -0.86947,0.85002 -1.31155,0.96061 -0.44208,0.11059 -0.90926,0.019 -1.45779,-0.2662 -1.68606,-0.8765 -3.71347,-2.87919 -8.642881,-8.54577 -2.379607,-2.73547 -4.353094,-4.95215 -5.750552,-6.467029 -0.69873,-0.75744 -1.253281,-1.339542 -1.643311,-1.723314 -0.195014,-0.191885 -0.348731,-0.333789 -0.459404,-0.424223 -0.05533,-0.04522 -0.09947,-0.07771 -0.134358,-0.09721 -0.01744,-0.0097 -0.03284,-0.01626 -0.04754,-0.01945 -0.01471,-0.0032 -0.03283,-0.0027 -0.04547,0.0095 -0.0099,0.0096 -0.0092,0.01457 -0.01085,0.02144 -0.0016,0.0069 -0.0029,0.01511 -0.0041,0.02491 -0.0024,0.0196 -0.0044,0.04642 -0.0062,0.08026 -0.0035,0.06767 -0.0056,0.163984 -0.0067,0.28614 -0.0024,0.244313 -2.64e-4,0.591642 0.0062,1.016937 0.01296,0.850593 0.04293,2.012139 0.0863,3.279629 0.195275,5.70634 -0.544624,7.94837 0.202316,10.04042 l -0.217609,0.41034 -1.561452,-1.40197 c -0.93903,-0.84312 0.111411,0.92672 -0.751795,0.98703 -0.863206,0.0603 -1.116955,0.27031 -1.554713,-0.21064 -0.218826,-0.24042 1.319485,-0.33715 1.200515,-0.77455 -0.118972,-0.4374 -2.328928,0.39607 -2.357265,-0.55521 -0.05667,-1.90256 0.06023,-5.14408 0.313158,-10.976949 0.254526,-5.869632 0.308276,-8.855207 0.313161,-17.339304 0.0062,-10.756211 1.162931,-13.85774 0.609412,-16.502108 -0.146175,-0.698327 0.935971,-0.0882 0.800026,-0.433338 l -1.653572,-0.440675 0.02037,-0.504055 c 1.216104,-0.554235 2.475616,-0.918877 3.139861,-0.914247 z"
         id="path903"
         sodipodi:nodetypes="scccssssssscccssssscssssssssssssssssscssssssssssssscccsssssssscccsssssssssssssssssssssssssssssssssssssssssssscccssssssscccscs" />
    </g>
  </g>
</svg>
