<?xml version="1.0" encoding="UTF-8" standalone="no"?>
<svg
   xmlns:dc="http://purl.org/dc/elements/1.1/"
   xmlns:cc="http://creativecommons.org/ns#"
   xmlns:rdf="http://www.w3.org/1999/02/22-rdf-syntax-ns#"
   xmlns:svg="http://www.w3.org/2000/svg"
   xmlns="http://www.w3.org/2000/svg"
   xmlns:sodipodi="http://sodipodi.sourceforge.net/DTD/sodipodi-0.dtd"
   xmlns:inkscape="http://www.inkscape.org/namespaces/inkscape"
   width="210mm"
   height="297mm"
   viewBox="0 0 210 297"
   version="1.1"
   id="svg8"
   inkscape:export-filename="C:\Users\amyta\bitmap.png"
   inkscape:export-xdpi="96"
   inkscape:export-ydpi="96"
   inkscape:version="1.0.2 (e86c870879, 2021-01-15, custom)"
   sodipodi:docname="music notes.svg">
  <defs
     id="defs2" />
  <sodipodi:namedview
     id="base"
     pagecolor="#ffffff"
     bordercolor="#666666"
     borderopacity="1.0"
     inkscape:pageopacity="0.0"
     inkscape:pageshadow="2"
     inkscape:zoom="1.4"
     inkscape:cx="354.01034"
     inkscape:cy="401.61961"
     inkscape:document-units="mm"
     inkscape:current-layer="layer1"
     inkscape:document-rotation="0"
     showgrid="true"
     inkscape:window-width="1920"
     inkscape:window-height="1009"
     inkscape:window-x="1912"
     inkscape:window-y="-8"
     inkscape:window-maximized="1"
     inkscape:snap-global="false">
    <inkscape:grid
       type="xygrid"
       id="grid833" />
  </sodipodi:namedview>
  <metadata
     id="metadata5">
    <rdf:RDF>
      <cc:Work
         rdf:about="">
        <dc:format>image/svg+xml</dc:format>
        <dc:type
           rdf:resource="http://purl.org/dc/dcmitype/StillImage" />
        <dc:title></dc:title>
      </cc:Work>
    </rdf:RDF>
  </metadata>
  <g
     inkscape:label="Layer 1"
     inkscape:groupmode="layer"
     id="layer1">
    <g
       id="g899"
       inkscape:export-filename="D:\amyta\Documents\Projects\flexbox-business-site-starting\resources\images\eigth-note 2.png"
       inkscape:export-xdpi="96"
       inkscape:export-ydpi="96">
      <path
         style="fill:#000000;fill-opacity:1;stroke:#000000;stroke-width:0.200965px;stroke-linecap:butt;stroke-linejoin:miter;stroke-opacity:1"
         d="m 41.010417,37.041663 h 39.687499 l 10e-7,44.97917 -2.645833,1.32291 L 77.645032,42.33333 H 43.656251 v 38.364583 l -2.645834,1.32292 z"
         id="path835"
         sodipodi:nodetypes="ccccccccc" />
      <ellipse
         style="fill:#000000;fill-opacity:1;stroke:#000000;stroke-width:0.434824;stroke-miterlimit:4;stroke-dasharray:none;stroke-opacity:1"
         id="path839"
         cx="35.379917"
         cy="80.486015"
         rx="8.0630817"
         ry="6.6456709" />
      <ellipse
         style="fill:#000000;fill-opacity:1;stroke:#000000;stroke-width:0.434824;stroke-miterlimit:4;stroke-dasharray:none;stroke-opacity:1"
         id="path839-5"
         cx="72.662666"
         cy="80.512886"
         rx="8.0630817"
         ry="6.6456709" />
    </g>
    <g
       id="g946"
       inkscape:export-filename="D:\amyta\Documents\Projects\flexbox-business-site-starting\resources\images\half-note.png"
       inkscape:export-xdpi="96"
       inkscape:export-ydpi="96">
      <rect
         style="fill:#000000;fill-opacity:1;stroke:#000000;stroke-width:0.848868;stroke-miterlimit:4;stroke-dasharray:none;stroke-opacity:1"
         id="rect866-5"
         width="1.7260265"
         height="37.875149"
         x="100.43214"
         y="98.12648"
         ry="1.5158981" />
      <ellipse
         style="fill:none;fill-opacity:1;stroke:#000000;stroke-width:1.21291;stroke-miterlimit:4;stroke-dasharray:none;stroke-opacity:1"
         id="path901"
         cx="92.675705"
         cy="130.62798"
         rx="8.9279966"
         ry="6.9234748" />
    </g>
    <path
       style="fill:none;fill-opacity:1;stroke:#000000;stroke-width:2.62099;stroke-miterlimit:4;stroke-dasharray:none;stroke-opacity:1"
       d=""
       id="path962"
       transform="scale(0.26458333)" />
    <path
       style="fill:none;fill-opacity:1;stroke:#000000;stroke-width:2.62099;stroke-miterlimit:4;stroke-dasharray:none;stroke-opacity:1"
       d=""
       id="path964"
       transform="scale(0.26458333)" />
    <path
       style="fill:none;fill-opacity:1;stroke:#000000;stroke-width:2.62099;stroke-miterlimit:4;stroke-dasharray:none;stroke-opacity:1"
       d=""
       id="path966"
       transform="scale(0.26458333)" />
    <path
       style="fill:none;fill-opacity:1;stroke:#000000;stroke-width:2.62099;stroke-miterlimit:4;stroke-dasharray:none;stroke-opacity:1"
       d=""
       id="path970"
       transform="scale(0.26458333)" />
    <path
       style="fill:none;fill-opacity:1;stroke:#000000;stroke-width:2.62099;stroke-miterlimit:4;stroke-dasharray:none;stroke-opacity:1"
       d=""
       id="path972"
       transform="scale(0.26458333)" />
    <path
       style="fill:none;fill-opacity:1;stroke:#000000;stroke-width:0.327623;stroke-miterlimit:4;stroke-dasharray:none;stroke-opacity:1"
       d=""
       id="path978"
       transform="scale(0.26458333)" />
    <path
       style="fill:none;fill-opacity:1;stroke:#000000;stroke-width:0.327623;stroke-miterlimit:4;stroke-dasharray:none;stroke-opacity:1"
       d=""
       id="path980"
       transform="scale(0.26458333)" />
    <path
       style="fill:none;fill-opacity:1;stroke:#000000;stroke-width:0.327623;stroke-miterlimit:4;stroke-dasharray:none;stroke-opacity:1"
       d=""
       id="path982"
       transform="scale(0.26458333)" />
    <path
       style="fill:none;fill-opacity:1;stroke:#000000;stroke-width:0.327623;stroke-miterlimit:4;stroke-dasharray:none;stroke-opacity:1"
       d=""
       id="path984"
       transform="scale(0.26458333)" />
    <path
       style="fill:none;stroke:#000000;stroke-width:0.264583px;stroke-linecap:butt;stroke-linejoin:miter;stroke-opacity:1"
       d="m 143.3901,65.614667 c 7.57054,2.011114 14.26507,5.039895 16.03617,18.708867 -3.8437,-1.092197 -8.13775,-14.684266 -14.83346,-9.087163"
       id="path948"
       sodipodi:nodetypes="ccc" />
    <path
       style="fill:none;fill-opacity:1;stroke:#000000;stroke-width:0.69347;stroke-miterlimit:4;stroke-dasharray:none;stroke-opacity:1"
       d="m 158.46244,83.514892 c -0.74437,-0.592309 -1.50363,-1.494496 -3.35666,-3.988557 -1.65971,-2.233848 -3.84939,-4.541506 -4.85907,-5.120862 -1.72833,-0.991711 -3.4864,-0.92271 -5.14837,0.202068 l -0.56268,0.380807 -0.0387,-4.379336 c -0.0213,-2.408634 -0.026,-4.401997 -0.0106,-4.429696 0.0495,-0.0887 2.59503,0.776433 3.77532,1.283073 4.95919,2.128726 7.90624,5.46396 9.67418,10.948447 0.53019,1.644764 1.19252,4.708356 1.12911,5.222716 l -0.0405,0.328576 z"
       id="path950" />
    <path
       style="fill:none;fill-opacity:1;stroke:#000000;stroke-width:0.69347;stroke-miterlimit:4;stroke-dasharray:none;stroke-opacity:1"
       d="m 157.90304,82.384243 c -0.31615,-0.359114 -1.1247,-1.374564 -1.79677,-2.256552 -2.68854,-3.528253 -4.70941,-5.637988 -6.01006,-6.27434 -1.43964,-0.704347 -3.1294,-0.702042 -4.527,0.0062 l -0.64318,0.325924 V 70.445953 66.70643 l 1.36976,0.474707 c 6.74856,2.338795 10.25111,6.449878 11.92365,13.99526 0.19301,0.870767 0.33012,1.645674 0.30467,1.722011 -0.0255,0.07634 -0.30493,-0.155019 -0.62107,-0.514135 z"
       id="path952" />
    <path
       style="fill:none;fill-opacity:1;stroke:#000000;stroke-width:0.69347;stroke-miterlimit:4;stroke-dasharray:none;stroke-opacity:1"
       d="m 156.15135,79.487217 c -1.80404,-2.318031 -4.04637,-4.74935 -5.07988,-5.508017 -1.33675,-0.981265 -3.45948,-1.296908 -5.04295,-0.749871 l -0.70159,0.242371 v -3.053064 c 0,-2.020231 0.0469,-3.053064 0.13868,-3.053064 0.28782,0 2.59795,0.955879 3.75759,1.554811 3.70094,1.911461 6.17216,4.856707 7.65251,9.12042 0.47806,1.376889 1.06344,3.488015 0.98628,3.556892 -0.0221,0.01974 -0.7919,-0.929979 -1.71064,-2.110478 z"
       id="path954" />
    <g
       id="g1070"
       inkscape:export-filename="D:\amyta\Documents\Projects\flexbox-business-site-starting\resources\images\eigth-note1.png"
       inkscape:export-xdpi="96"
       inkscape:export-ydpi="96">
      <ellipse
         style="fill:#000000;fill-opacity:1;stroke:#000000;stroke-width:0.440039;stroke-miterlimit:4;stroke-dasharray:none;stroke-opacity:1"
         id="path839-8"
         cx="135.93871"
         cy="101.02413"
         rx="8.2609253"
         ry="6.6430626" />
      <rect
         style="fill:#000000;fill-opacity:1;stroke:#000000;stroke-width:0.948549;stroke-miterlimit:4;stroke-dasharray:none;stroke-opacity:1"
         id="rect866"
         width="2.1608844"
         height="37.775467"
         x="141.80177"
         y="65.534592"
         ry="1.5119084" />
      <path
         style="fill:none;fill-opacity:1;stroke:#000000;stroke-width:0.69347;stroke-miterlimit:4;stroke-dasharray:none;stroke-opacity:1"
         d="m 155.45087,77.955245 c -0.77823,-0.93663 -2.04034,-2.316948 -2.80468,-3.067376 -1.48065,-1.453689 -2.2247,-1.909333 -3.57748,-2.190789 -0.72713,-0.151286 -2.65383,-0.100452 -3.10701,0.08197 -0.21772,0.08764 -0.23386,-0.0775 -0.23386,-2.392402 0,-1.367597 0.0284,-2.486541 0.0632,-2.486541 0.21305,0 3.31191,1.418 3.99325,1.827263 3.23919,1.94569 5.34364,4.64889 6.77395,8.701256 0.22056,0.624904 0.38001,1.157198 0.35433,1.182881 -0.0257,0.02569 -0.68343,-0.719638 -1.46166,-1.656265 z"
         id="path956" />
      <path
         style="fill:none;fill-opacity:1;stroke:#000000;stroke-width:0.69347;stroke-miterlimit:4;stroke-dasharray:none;stroke-opacity:1"
         d="m 155.16558,76.972193 c -0.91408,-1.111636 -3.29372,-3.416212 -4.00221,-3.875958 -1.03479,-0.671483 -2.40033,-0.980101 -3.91777,-0.885433 l -1.11686,0.06968 v -1.918539 -1.918538 l 1.30294,0.60394 c 3.23924,1.50146 5.06898,2.970816 6.64228,5.334053 1.25411,1.883775 2.03583,3.739078 1.09162,2.590797 z"
         id="path958" />
      <path
         style="fill:none;fill-opacity:1;stroke:#000000;stroke-width:0.69347;stroke-miterlimit:4;stroke-dasharray:none;stroke-opacity:1"
         d="m 152.66153,73.817021 c -1.7042,-1.544195 -2.53803,-1.900785 -4.69531,-2.007973 l -1.43657,-0.07138 V 70.42764 69.117609 l 0.7684,0.348723 c 2.3539,1.068271 4.34786,2.510877 5.58232,4.03874 0.42266,0.523121 0.73833,0.981282 0.70147,1.018135 -0.0368,0.03685 -0.45099,-0.280929 -0.92031,-0.706186 z"
         id="path960" />
      <path
         style="fill:none;fill-opacity:1;stroke:#000000;stroke-width:0.0866836;stroke-miterlimit:4;stroke-dasharray:none;stroke-opacity:1"
         d="m 148.42928,71.068916 c -0.11479,-0.01257 -0.8983,-0.04822 -1.0649,-0.04846 l -0.071,-1.06e-4 v -0.335478 c 0,-0.184512 0.006,-0.332893 0.0125,-0.329734 0.11866,0.0544 1.01863,0.526989 1.23195,0.646909 0.1485,0.08348 0.14952,0.08449 0.0835,0.08255 -0.0368,-0.0011 -0.1232,-0.0081 -0.1921,-0.01569 z"
         id="path974" />
      <path
         style="fill:none;fill-opacity:1;stroke:#000000;stroke-width:0.0866836;stroke-miterlimit:4;stroke-dasharray:none;stroke-opacity:1"
         d="m 148.17036,71.003016 c -0.10106,-0.0067 -0.32844,-0.01781 -0.5053,-0.02458 l -0.32156,-0.01228 v -0.265388 -0.265385 l 0.16596,0.08328 c 0.18197,0.09132 0.92397,0.483994 0.93513,0.494882 0.008,0.0076 -0.0157,0.0067 -0.27423,-0.01053 z"
         id="path976" />
      <path
         style="fill:none;fill-opacity:1;stroke:#000000;stroke-width:0.0866836;stroke-miterlimit:4;stroke-dasharray:none;stroke-opacity:1"
         d="m 150.74203,71.999556 c -0.0648,-0.03039 -0.19094,-0.08363 -0.28042,-0.1183 l -0.1627,-0.06304 0.0279,-0.04252 c 0.0153,-0.02339 0.0325,-0.05984 0.0382,-0.081 0.01,-0.03631 0.0217,-0.02979 0.21234,0.115485 0.36239,0.276249 0.37109,0.28625 0.16471,0.189381 z"
         id="path986" />
      <path
         style="fill:none;fill-opacity:1;stroke:#000000;stroke-width:0.0866836;stroke-miterlimit:4;stroke-dasharray:none;stroke-opacity:1"
         d="m 154.02671,75.222962 -0.35614,-0.356423 0.0837,-0.04553 c 0.046,-0.02503 0.0901,-0.05993 0.098,-0.07754 0.0118,-0.02635 0.0517,0.02777 0.22609,0.306526 0.24309,0.388651 0.31831,0.51562 0.31025,0.523687 -0.003,0.0031 -0.16597,-0.154686 -0.36184,-0.350721 z"
         id="path988" />
      <path
         style="fill:none;fill-opacity:1;stroke:#000000;stroke-width:0.0866836;stroke-miterlimit:4;stroke-dasharray:none;stroke-opacity:1"
         d="m 155.85724,77.885035 c -0.10801,-0.128185 -0.18627,-0.233063 -0.17391,-0.233063 0.0123,0 0.054,-0.02318 0.0925,-0.05148 l 0.07,-0.05148 0.0154,0.03895 c 0.0924,0.233494 0.20054,0.522007 0.19694,0.525605 -0.002,0.0024 -0.0929,-0.100349 -0.20091,-0.228534 z"
         id="path990" />
    </g>
    <path
       style="fill:none;stroke:#000000;stroke-width:0.264583px;stroke-linecap:butt;stroke-linejoin:miter;stroke-opacity:1"
       d="m 146.59733,70.492336 12.2944,12.79553"
       id="path994" />
    <path
       style="fill:none;stroke:#000000;stroke-width:2.365;stroke-linecap:butt;stroke-linejoin:miter;stroke-miterlimit:4;stroke-dasharray:none;stroke-opacity:1"
       d="m 146.49711,69.757345 c 10.45885,7.561714 8.07377,8.908984 11.75986,12.160764"
       id="path996"
       sodipodi:nodetypes="cc" />
    <g
       id="g1058"
       inkscape:export-filename="D:\amyta\Documents\Projects\flexbox-business-site-starting\resources\images\quarternote.png"
       inkscape:export-xdpi="96"
       inkscape:export-ydpi="96">
      <ellipse
         style="fill:#000000;fill-opacity:1;stroke:#000000;stroke-width:0.440039;stroke-miterlimit:4;stroke-dasharray:none;stroke-opacity:1"
         id="path839-8-2"
         cx="147.02409"
         cy="147.97597"
         rx="8.2609253"
         ry="6.6430626" />
      <rect
         style="fill:#000000;fill-opacity:1;stroke:#000000;stroke-width:0.948549;stroke-miterlimit:4;stroke-dasharray:none;stroke-opacity:1"
         id="rect866-3"
         width="2.1608844"
         height="37.775467"
         x="152.88716"
         y="112.48642"
         ry="1.5119084" />
    </g>
  </g>
</svg>
